<?xml version="1.0" encoding="UTF-8" standalone="no"?>
<!-- Uploaded to: SVG Repo, www.svgrepo.com, Transformed by: SVG Repo Mixer Tools -->

<svg
   width="256px"
   height="256px"
   viewBox="0 -0.5 25 25"
   fill="none"
   version="1.1"
   id="svg9"
   sodipodi:docname="comments-3-svgrepo-com.svg"
   inkscape:version="1.1 (c68e22c387, 2021-05-23)"
   xmlns:inkscape="http://www.inkscape.org/namespaces/inkscape"
   xmlns:sodipodi="http://sodipodi.sourceforge.net/DTD/sodipodi-0.dtd"
   xmlns="http://www.w3.org/2000/svg"
   xmlns:svg="http://www.w3.org/2000/svg">
  <defs
     id="defs13" />
  <sodipodi:namedview
     id="namedview11"
     pagecolor="#ffffff"
     bordercolor="#666666"
     borderopacity="1.0"
     inkscape:pageshadow="2"
     inkscape:pageopacity="0.0"
     inkscape:pagecheckerboard="0"
     showgrid="false"
     inkscape:zoom="1.1849563"
     inkscape:cx="128.27477"
     inkscape:cy="127.85282"
     inkscape:window-width="1920"
     inkscape:window-height="1017"
     inkscape:window-x="-8"
     inkscape:window-y="-8"
     inkscape:window-maximized="1"
     inkscape:current-layer="svg9" />
  <g
     id="SVGRepo_bgCarrier"
     stroke-width="0" />
  <g
     id="SVGRepo_tracerCarrier"
     stroke-linecap="round"
     stroke-linejoin="round" />
  <g
     id="SVGRepo_iconCarrier"
     transform="matrix(1.3509199,0,0,1.3509199,-4.1392468,-3.9638103)">
    <path
       fill-rule="evenodd"
       clip-rule="evenodd"
       d="M 18.1,5.00016 H 6.9 C 6.53425,4.99455 6.18126,5.13448 5.9187,5.38917 5.65614,5.64385 5.50553,5.99242 5.5,6.35816 v 8.14204 c 0.00553,0.3657 0.15614,0.7143 0.4187,0.969 0.26256,0.2546 0.61555,0.3946 0.9813,0.389 h 3.87 c 0.2181,-0.0012 0.4335,0.0474 0.63,0.142 l 5.651,3 -0.051,-4.5 h 1.43 c 0.5806,0.0089 1.0591,-0.4535 1.07,-1.034 V 6.35816 C 19.4945,5.99242 19.3439,5.64385 19.0813,5.38917 18.8187,5.13448 18.4657,4.99455 18.1,5.00016 Z"
       stroke="#000000"
       stroke-width="1.5"
       stroke-linecap="round"
       stroke-linejoin="round"
       id="path4" />
    <path
       d="m 8.5,8.25024 c -0.41421,0 -0.75,0.33579 -0.75,0.75 0,0.41422 0.33579,0.75 0.75,0.75 z m 8,1.5 c 0.4142,0 0.75,-0.33578 0.75,-0.75 0,-0.41421 -0.3358,-0.75 -0.75,-0.75 z m -8,1.49996 c -0.41421,0 -0.75,0.3358 -0.75,0.75 0,0.4143 0.33579,0.75 0.75,0.75 z m 6,1.5 c 0.4142,0 0.75,-0.3357 0.75,-0.75 0,-0.4142 -0.3358,-0.75 -0.75,-0.75 z m -6,-2.99996 h 8 v -1.5 h -8 z m 0,2.99996 h 6 v -1.5 h -6 z"
       fill="#000000"
       id="path6" />
  </g>
</svg>
